<svg width="1318" height="502" viewBox="0 0 1318 502" fill="none" xmlns="http://www.w3.org/2000/svg">
<rect y="44" width="1318" height="458" fill="url(#paint0_linear_572_1472)"/>
<g clip-path="url(#clip0_572_1472)">
<path d="M710.5 467C707.347 467 703.968 466.775 700.589 466.324C681.895 463.846 665.452 454.161 654.19 439.07C642.928 423.979 637.973 405.509 640.676 386.815C643.153 368.12 652.839 351.677 667.93 340.415C683.021 329.153 701.49 324.198 720.185 326.901C738.88 329.378 755.323 339.064 766.585 354.155C777.847 369.246 782.802 387.716 780.099 406.41C777.621 425.105 767.936 441.548 752.845 452.81C740.682 462.045 725.816 467 710.5 467ZM710.5 332.081C678.966 332.081 651.262 355.506 646.757 387.716C644.505 404.834 648.784 421.727 659.145 435.466C669.506 449.206 684.597 457.99 701.716 460.468C718.834 462.72 735.727 458.441 749.466 448.08C763.206 437.719 771.99 422.628 774.468 405.509C776.72 388.391 772.441 371.498 762.08 357.759C751.719 344.019 736.403 335.009 719.284 332.532C716.356 332.307 713.428 332.081 710.5 332.081Z" fill="white"/>
<path d="M710.5 450.782C708.022 450.782 705.545 450.557 702.842 450.332C688.427 448.305 675.813 440.872 667.029 429.385C658.244 417.672 654.641 403.482 656.668 389.067C658.695 374.651 666.128 362.038 677.615 353.254C689.102 344.469 703.518 340.865 717.933 342.667C732.348 344.695 744.962 352.127 753.746 363.615C762.53 375.102 766.134 389.517 764.332 403.933C762.305 418.348 754.872 430.961 743.385 439.746C733.7 446.953 722.212 450.782 710.5 450.782ZM710.5 346.722C686.174 346.722 664.776 364.741 661.173 389.517C659.371 402.581 662.749 415.645 670.858 426.456C678.966 437.043 690.454 443.8 703.743 445.602C716.807 447.404 729.871 444.025 740.682 435.917C751.268 427.808 758.026 416.321 759.827 403.032C761.629 389.968 758.251 376.904 750.142 366.092C742.034 355.506 730.546 348.749 717.257 346.947C715.005 346.947 712.752 346.722 710.5 346.722Z" fill="#27C7FD"/>
<path d="M710.5 430.286C708.923 430.286 707.347 430.286 705.77 430.061C696.76 428.709 688.877 424.204 683.471 416.997C678.065 409.789 675.813 401.005 676.939 391.995C678.291 382.986 682.796 375.102 690.003 369.696C697.211 364.291 705.995 362.038 715.005 363.164C724.014 364.516 731.898 369.021 737.304 376.228C742.709 383.436 744.962 392.22 743.835 401.23C742.484 410.24 737.979 418.123 730.772 423.529C724.915 427.808 717.933 430.286 710.5 430.286ZM710.5 365.642C695.409 365.642 682.12 376.904 679.867 392.22C678.741 400.329 680.768 408.438 685.724 415.195C690.679 421.727 697.887 426.006 706.22 427.132C714.329 428.259 722.438 426.232 729.195 421.276C735.727 416.321 740.006 409.113 741.133 400.779C742.259 392.671 740.232 384.562 735.276 377.805C730.321 371.273 723.113 366.994 714.78 365.867C713.203 365.642 711.851 365.642 710.5 365.642Z" fill="white"/>
<path d="M710.5 412.266C709.824 412.266 709.149 412.266 708.248 412.041C703.968 411.366 700.364 409.338 697.887 405.96C695.409 402.581 694.283 398.527 694.733 394.247C695.409 389.968 697.436 386.364 700.815 383.886C704.193 381.409 708.248 380.282 712.527 380.733C716.807 381.409 720.411 383.436 722.888 386.814C725.366 390.193 726.492 394.247 726.042 398.527C725.366 402.806 723.339 406.41 719.96 408.888C717.257 411.14 713.879 412.266 710.5 412.266ZM710.5 382.084C703.518 382.084 697.211 387.265 696.31 394.473C695.859 398.302 696.76 402.131 699.013 405.059C701.265 408.212 704.644 410.014 708.473 410.69C712.302 411.14 716.131 410.239 719.059 407.987C722.212 405.735 724.014 402.356 724.69 398.527C725.141 394.698 724.24 390.869 721.987 387.941C719.735 384.787 716.356 382.985 712.527 382.31C711.851 382.084 711.176 382.084 710.5 382.084Z" fill="#27C7FD"/>
</g>
<g clip-path="url(#clip1_572_1472)">
<path d="M56.4049 92.7017C54.2836 94.823 51.3844 96.1665 48.1317 96.1665L48.1317 90.0854C51.243 90.0854 53.7886 87.5398 53.7886 84.4285L53.7886 83.1558C53.7886 76.6504 59.0212 71.4178 65.5266 71.4178L66.7993 71.4178C69.9106 71.4178 72.4562 68.8722 72.4562 65.7609L72.4562 63.2153C72.4562 56.71 77.6888 51.4774 84.1942 51.4774C85.7498 51.4774 87.164 50.9117 88.2247 49.851C89.2853 48.7904 89.851 47.3762 89.851 45.8205L89.851 44.5477C89.851 38.0423 95.0836 32.8098 101.589 32.8098L102.862 32.8098C105.973 32.8098 108.519 30.2642 108.519 27.1529L108.519 24.1831C108.66 17.8191 113.822 12.6572 120.186 12.5158L121.812 12.4451C124.924 12.4451 127.398 9.82878 127.398 6.71751V5.3033L133.48 5.44472V6.85894C133.48 13.2229 128.318 18.5262 121.883 18.5969L120.257 18.6676C117.216 18.7383 114.67 21.2839 114.67 24.2538V27.2236C114.6 33.6583 109.367 38.8909 102.933 38.9616L101.66 38.9616C100.104 38.9616 98.6899 39.5273 97.6292 40.5879C96.5685 41.6486 96.0029 43.0628 96.0029 44.6184L96.0029 45.8912C96.0029 49.0025 94.7301 51.9723 92.538 54.1644C90.346 56.3564 87.3762 57.6292 84.2649 57.6292C81.1536 57.6292 78.608 60.1748 78.608 63.2861L78.608 65.8316C78.608 72.337 73.3754 77.5696 66.8701 77.5696L65.5266 77.4989C62.4153 77.4989 59.8697 80.0445 59.8697 83.1558L59.8697 84.4285C59.8697 87.6812 58.5262 90.5804 56.4049 92.7017Z" fill="white"/>
<path d="M70.052 106.349C67.9307 108.47 65.0316 109.814 61.7789 109.814L61.7789 103.733C64.8902 103.733 67.4358 101.187 67.4357 98.0759L67.4357 96.8032C67.4357 90.2978 72.6683 85.0652 79.1737 85.0652L80.4465 85.0652C83.5578 85.0652 86.1034 82.5196 86.1034 79.4083L86.1034 76.8627C86.1034 70.3574 91.336 65.1248 97.8413 65.1248C99.397 65.1248 100.811 64.5591 101.872 63.4984C102.933 62.4378 103.498 61.0235 103.498 59.4679V58.1951C103.498 51.6897 108.731 46.4571 115.236 46.4572H116.509C119.62 46.4571 122.166 43.9116 122.166 40.8003V37.8304C122.166 31.4665 127.398 26.2339 133.762 26.0925L135.389 26.0218C138.5 26.0218 140.975 23.4055 140.975 20.2942V18.88L147.127 19.0921V20.5063C147.127 26.8703 141.965 32.1736 135.53 32.2443H133.974C130.934 32.315 128.388 34.8606 128.388 37.8304V40.8003C128.318 47.235 123.085 52.4676 116.65 52.5383L115.378 52.5383C113.822 52.5383 112.408 53.104 111.347 54.1646C110.286 55.2253 109.721 56.6395 109.721 58.1951L109.721 59.4679C109.721 62.5792 108.448 65.549 106.256 67.7411C104.064 69.9331 101.094 71.2059 97.9828 71.2059C94.8715 71.2059 92.3259 73.7515 92.3259 76.8627L92.3259 79.4083C92.3259 85.9137 87.0933 91.1463 80.5879 91.1463H79.1737C76.0625 91.1463 73.5169 93.6919 73.5169 96.8032L73.5169 98.0759C73.5169 101.329 72.1734 104.228 70.052 106.349Z" fill="#4867FB"/>
</g>
<defs>
<linearGradient id="paint0_linear_572_1472" x1="-1.17274e-05" y1="78.697" x2="1291.67" y2="478.444" gradientUnits="userSpaceOnUse">
<stop stop-color="#27C7FD"/>
<stop offset="1" stop-color="#4867FB"/>
</linearGradient>
<clipPath id="clip0_572_1472">
<rect width="141" height="141" fill="white" transform="translate(640 326)"/>
</clipPath>
<clipPath id="clip1_572_1472">
<rect width="34.2" height="124.5" fill="white" transform="translate(128.035) rotate(45)"/>
</clipPath>
</defs>
</svg>
